<?xml version="1.0" standalone="no"?>
<!DOCTYPE svg PUBLIC "-//W3C//DTD SVG 20010904//EN" "http://www.w3.org/TR/2001/REC-SVG-20010904/DTD/svg10.dtd">
<!-- Created using Krita: https://krita.org -->
<svg xmlns="http://www.w3.org/2000/svg" 
    xmlns:xlink="http://www.w3.org/1999/xlink"
    xmlns:krita="http://krita.org/namespaces/svg/krita"
    xmlns:sodipodi="http://sodipodi.sourceforge.net/DTD/sodipodi-0.dtd"
    width="11.52pt"
    height="11.52pt"
    viewBox="0 0 11.52 11.52">
<defs/>
<path id="shape0" transform="matrix(0.72 0 0 0.72 0 0)" fill="#ffffff" stroke-opacity="0" stroke="#000000" stroke-width="0" stroke-linecap="square" stroke-linejoin="bevel" d="M8 15C9.8558 15 11.6375 14.262 12.9497 12.9497C14.262 11.6375 15 9.8558 15 8C15 6.1442 14.262 4.3625 12.9497 3.05025C11.6375 1.738 9.8558 1 8 1ZM8 16C5.87908 16 3.84286 15.1566 2.34315 13.6569C0.84343 12.1571 2.59738e-16 10.1209 0 8C-2.59738e-16 5.87908 0.84343 3.84286 2.34315 2.34315C3.84286 0.84343 5.87908 3.89606e-16 8 0C10.1209 1.29869e-16 12.1571 0.84343 13.6569 2.34315C15.1566 3.84286 16 5.87908 16 8C16 10.1209 15.1566 12.1571 13.6569 13.6569C12.1571 15.1566 10.1209 16 8 16" sodipodi:nodetypes="ccccccccccccccc"/>
</svg>
